<mxfile host="app.diagrams.net" modified="2023-10-18T01:09:10.345Z" agent="Mozilla/5.0 (Windows NT 10.0; Win64; x64) AppleWebKit/537.36 (KHTML, like Gecko) Chrome/118.0.0.0 Safari/537.36 Edg/118.0.2088.46" etag="XI4WMzLhXaJCDgJXBr37" version="22.0.4" type="github">
  <diagram name="Page-1" id="sQGgzUaZy7yGkq21Dc3f">
    <mxGraphModel dx="3337" dy="3757" grid="1" gridSize="10" guides="1" tooltips="1" connect="1" arrows="1" fold="1" page="1" pageScale="1" pageWidth="850" pageHeight="1100" math="0" shadow="0">
      <root>
        <mxCell id="0" />
        <mxCell id="1" parent="0" />
        <mxCell id="krIxkYJXfylPc0ciONJd-1" value="" style="rounded=0;whiteSpace=wrap;html=1;" vertex="1" parent="1">
          <mxGeometry x="-785" y="-1040" width="720" height="1750" as="geometry" />
        </mxCell>
        <mxCell id="krIxkYJXfylPc0ciONJd-48" value="" style="rounded=1;whiteSpace=wrap;html=1;movable=1;resizable=1;rotatable=1;deletable=1;editable=1;locked=0;connectable=1;" vertex="1" parent="1">
          <mxGeometry x="-275" y="-160" width="160" height="180" as="geometry" />
        </mxCell>
        <mxCell id="krIxkYJXfylPc0ciONJd-2" value="Logo" style="text;html=1;strokeColor=none;fillColor=none;align=center;verticalAlign=middle;whiteSpace=wrap;rounded=0;fontStyle=1" vertex="1" parent="1">
          <mxGeometry x="-765" y="-1010" width="60" height="30" as="geometry" />
        </mxCell>
        <mxCell id="krIxkYJXfylPc0ciONJd-3" value="Fetures" style="text;html=1;strokeColor=none;fillColor=none;align=center;verticalAlign=middle;whiteSpace=wrap;rounded=0;fontStyle=1" vertex="1" parent="1">
          <mxGeometry x="-525" y="-1010" width="60" height="30" as="geometry" />
        </mxCell>
        <mxCell id="krIxkYJXfylPc0ciONJd-4" value="About" style="text;html=1;strokeColor=none;fillColor=none;align=center;verticalAlign=middle;whiteSpace=wrap;rounded=0;fontStyle=1" vertex="1" parent="1">
          <mxGeometry x="-465" y="-1010" width="60" height="30" as="geometry" />
        </mxCell>
        <mxCell id="krIxkYJXfylPc0ciONJd-5" value="Exercise" style="text;html=1;strokeColor=none;fillColor=none;align=center;verticalAlign=middle;whiteSpace=wrap;rounded=0;fontStyle=1" vertex="1" parent="1">
          <mxGeometry x="-405" y="-1010" width="60" height="30" as="geometry" />
        </mxCell>
        <mxCell id="krIxkYJXfylPc0ciONJd-100" style="edgeStyle=orthogonalEdgeStyle;rounded=0;orthogonalLoop=1;jettySize=auto;html=1;exitX=0.5;exitY=0;exitDx=0;exitDy=0;" edge="1" parent="1" source="krIxkYJXfylPc0ciONJd-6" target="krIxkYJXfylPc0ciONJd-90">
          <mxGeometry relative="1" as="geometry" />
        </mxCell>
        <mxCell id="krIxkYJXfylPc0ciONJd-6" value="Signup" style="text;html=1;strokeColor=none;fillColor=none;align=center;verticalAlign=middle;whiteSpace=wrap;rounded=0;fontStyle=1" vertex="1" parent="1">
          <mxGeometry x="-185" y="-1010" width="60" height="30" as="geometry" />
        </mxCell>
        <mxCell id="krIxkYJXfylPc0ciONJd-7" value="Tips" style="text;html=1;strokeColor=none;fillColor=none;align=center;verticalAlign=middle;whiteSpace=wrap;rounded=0;fontStyle=1" vertex="1" parent="1">
          <mxGeometry x="-345" y="-1010" width="60" height="30" as="geometry" />
        </mxCell>
        <mxCell id="krIxkYJXfylPc0ciONJd-87" style="edgeStyle=orthogonalEdgeStyle;rounded=0;orthogonalLoop=1;jettySize=auto;html=1;exitX=0.5;exitY=1;exitDx=0;exitDy=0;" edge="1" parent="1" source="krIxkYJXfylPc0ciONJd-8" target="krIxkYJXfylPc0ciONJd-77">
          <mxGeometry relative="1" as="geometry" />
        </mxCell>
        <mxCell id="krIxkYJXfylPc0ciONJd-8" value="Login" style="text;html=1;strokeColor=none;fillColor=none;align=center;verticalAlign=middle;whiteSpace=wrap;rounded=0;fontStyle=1" vertex="1" parent="1">
          <mxGeometry x="-245" y="-1010" width="60" height="30" as="geometry" />
        </mxCell>
        <mxCell id="krIxkYJXfylPc0ciONJd-9" value="&lt;h1&gt;HFT-Fitness&lt;/h1&gt;&lt;p&gt;Lorem ipsum dolor sit amet, consectetur adipisicing elit, sed do eiusmod tempor incididunt ut labore et dolore magna aliqua.&lt;/p&gt;" style="text;html=1;strokeColor=none;fillColor=none;spacing=5;spacingTop=-20;whiteSpace=wrap;overflow=hidden;rounded=0;align=center;" vertex="1" parent="1">
          <mxGeometry x="-705" y="-900" width="560" height="120" as="geometry" />
        </mxCell>
        <mxCell id="krIxkYJXfylPc0ciONJd-10" value="About" style="text;html=1;strokeColor=none;fillColor=none;align=center;verticalAlign=middle;whiteSpace=wrap;rounded=0;fontStyle=1" vertex="1" parent="1">
          <mxGeometry x="-455" y="-760" width="60" height="30" as="geometry" />
        </mxCell>
        <mxCell id="krIxkYJXfylPc0ciONJd-13" value="&lt;h1&gt;&lt;span style=&quot;background-color: initial; font-size: 12px; font-weight: normal;&quot;&gt;Lorem ipsum dolor sit amet, consectetur adipisicing elit, sed do eiusmod tempor incididunt ut labore et dolore magna aliqua.&lt;/span&gt;&lt;br&gt;&lt;/h1&gt;" style="text;html=1;strokeColor=none;fillColor=none;spacing=5;spacingTop=-20;whiteSpace=wrap;overflow=hidden;rounded=0;align=center;" vertex="1" parent="1">
          <mxGeometry x="-705" y="-710" width="560" height="80" as="geometry" />
        </mxCell>
        <mxCell id="krIxkYJXfylPc0ciONJd-14" value="Features" style="text;html=1;strokeColor=none;fillColor=none;align=center;verticalAlign=middle;whiteSpace=wrap;rounded=0;fontStyle=1" vertex="1" parent="1">
          <mxGeometry x="-455" y="-580" width="60" height="30" as="geometry" />
        </mxCell>
        <mxCell id="krIxkYJXfylPc0ciONJd-15" value="" style="rounded=1;whiteSpace=wrap;html=1;" vertex="1" parent="1">
          <mxGeometry x="-705" y="-520" width="160" height="180" as="geometry" />
        </mxCell>
        <mxCell id="krIxkYJXfylPc0ciONJd-16" value="" style="rounded=1;whiteSpace=wrap;html=1;" vertex="1" parent="1">
          <mxGeometry x="-505" y="-520" width="160" height="180" as="geometry" />
        </mxCell>
        <mxCell id="krIxkYJXfylPc0ciONJd-17" value="" style="rounded=1;whiteSpace=wrap;html=1;" vertex="1" parent="1">
          <mxGeometry x="-295" y="-520" width="160" height="180" as="geometry" />
        </mxCell>
        <mxCell id="krIxkYJXfylPc0ciONJd-18" value="Workout" style="text;html=1;strokeColor=none;fillColor=none;align=center;verticalAlign=middle;whiteSpace=wrap;rounded=0;fontStyle=1" vertex="1" parent="1">
          <mxGeometry x="-655" y="-430" width="60" height="30" as="geometry" />
        </mxCell>
        <mxCell id="krIxkYJXfylPc0ciONJd-19" value="Diet Plan&amp;nbsp;" style="text;html=1;strokeColor=none;fillColor=none;align=center;verticalAlign=middle;whiteSpace=wrap;rounded=0;fontStyle=1" vertex="1" parent="1">
          <mxGeometry x="-455" y="-430" width="60" height="30" as="geometry" />
        </mxCell>
        <mxCell id="krIxkYJXfylPc0ciONJd-20" value="other" style="text;html=1;strokeColor=none;fillColor=none;align=center;verticalAlign=middle;whiteSpace=wrap;rounded=0;fontStyle=1" vertex="1" parent="1">
          <mxGeometry x="-335" y="-430" width="150" height="30" as="geometry" />
        </mxCell>
        <mxCell id="krIxkYJXfylPc0ciONJd-23" value="" style="rounded=0;whiteSpace=wrap;html=1;" vertex="1" parent="1">
          <mxGeometry x="-685" y="-500" width="120" height="60" as="geometry" />
        </mxCell>
        <mxCell id="krIxkYJXfylPc0ciONJd-24" value="" style="rounded=0;whiteSpace=wrap;html=1;" vertex="1" parent="1">
          <mxGeometry x="-485" y="-500" width="120" height="60" as="geometry" />
        </mxCell>
        <mxCell id="krIxkYJXfylPc0ciONJd-25" value="" style="rounded=0;whiteSpace=wrap;html=1;" vertex="1" parent="1">
          <mxGeometry x="-275" y="-500" width="120" height="60" as="geometry" />
        </mxCell>
        <mxCell id="krIxkYJXfylPc0ciONJd-26" value="Exercise" style="text;html=1;strokeColor=none;fillColor=none;align=center;verticalAlign=middle;whiteSpace=wrap;rounded=0;fontStyle=1" vertex="1" parent="1">
          <mxGeometry x="-455" y="-290" width="60" height="30" as="geometry" />
        </mxCell>
        <mxCell id="krIxkYJXfylPc0ciONJd-28" value="" style="rounded=0;whiteSpace=wrap;html=1;" vertex="1" parent="1">
          <mxGeometry x="-740" y="-250" width="630" height="40" as="geometry" />
        </mxCell>
        <mxCell id="krIxkYJXfylPc0ciONJd-29" value="" style="rounded=1;whiteSpace=wrap;html=1;" vertex="1" parent="1">
          <mxGeometry x="-230" y="-250" width="120" height="40" as="geometry" />
        </mxCell>
        <mxCell id="krIxkYJXfylPc0ciONJd-30" value="Search" style="text;html=1;strokeColor=none;fillColor=none;align=center;verticalAlign=middle;whiteSpace=wrap;rounded=0;fontStyle=1" vertex="1" parent="1">
          <mxGeometry x="-195" y="-245" width="60" height="30" as="geometry" />
        </mxCell>
        <mxCell id="krIxkYJXfylPc0ciONJd-38" value="" style="group" vertex="1" connectable="0" parent="1">
          <mxGeometry x="-705" y="-160" width="160" height="180" as="geometry" />
        </mxCell>
        <mxCell id="krIxkYJXfylPc0ciONJd-27" value="" style="rounded=1;whiteSpace=wrap;html=1;" vertex="1" parent="krIxkYJXfylPc0ciONJd-38">
          <mxGeometry width="160" height="180" as="geometry" />
        </mxCell>
        <mxCell id="krIxkYJXfylPc0ciONJd-33" value="&lt;h1&gt;&lt;span style=&quot;background-color: initial; font-size: 12px; font-weight: normal;&quot;&gt;Lorem ipsum dolor sit amet, .&lt;/span&gt;&lt;br&gt;&lt;/h1&gt;" style="text;html=1;strokeColor=none;fillColor=none;spacing=5;spacingTop=-20;whiteSpace=wrap;overflow=hidden;rounded=0;align=left;" vertex="1" parent="krIxkYJXfylPc0ciONJd-38">
          <mxGeometry x="15" y="110" width="130" height="60" as="geometry" />
        </mxCell>
        <mxCell id="krIxkYJXfylPc0ciONJd-34" value="About" style="text;html=1;strokeColor=none;fillColor=none;align=center;verticalAlign=middle;whiteSpace=wrap;rounded=0;fontStyle=1" vertex="1" parent="krIxkYJXfylPc0ciONJd-38">
          <mxGeometry x="20" y="80" width="60" height="30" as="geometry" />
        </mxCell>
        <mxCell id="krIxkYJXfylPc0ciONJd-45" value="" style="rounded=1;whiteSpace=wrap;html=1;" vertex="1" parent="1">
          <mxGeometry x="-495" y="-160" width="160" height="180" as="geometry" />
        </mxCell>
        <mxCell id="krIxkYJXfylPc0ciONJd-43" value="About" style="text;html=1;strokeColor=none;fillColor=none;align=center;verticalAlign=middle;whiteSpace=wrap;rounded=0;fontStyle=1" vertex="1" parent="1">
          <mxGeometry x="-475" y="-80" width="60" height="30" as="geometry" />
        </mxCell>
        <mxCell id="krIxkYJXfylPc0ciONJd-44" value="&lt;h1&gt;&lt;span style=&quot;background-color: initial; font-size: 12px; font-weight: normal;&quot;&gt;Lorem ipsum dolor sit amet, .&lt;/span&gt;&lt;br&gt;&lt;/h1&gt;" style="text;html=1;strokeColor=none;fillColor=none;spacing=5;spacingTop=-20;whiteSpace=wrap;overflow=hidden;rounded=0;align=left;" vertex="1" parent="1">
          <mxGeometry x="-480" y="-50" width="130" height="60" as="geometry" />
        </mxCell>
        <mxCell id="krIxkYJXfylPc0ciONJd-46" value="About" style="text;html=1;strokeColor=none;fillColor=none;align=center;verticalAlign=middle;whiteSpace=wrap;rounded=0;fontStyle=1;movable=1;resizable=1;rotatable=1;deletable=1;editable=1;locked=0;connectable=1;" vertex="1" parent="1">
          <mxGeometry x="-255" y="-75" width="60" height="30" as="geometry" />
        </mxCell>
        <mxCell id="krIxkYJXfylPc0ciONJd-47" value="&lt;h1&gt;&lt;span style=&quot;background-color: initial; font-size: 12px; font-weight: normal;&quot;&gt;Lorem ipsum dolor sit amet, .&lt;/span&gt;&lt;br&gt;&lt;/h1&gt;" style="text;html=1;strokeColor=none;fillColor=none;spacing=5;spacingTop=-20;whiteSpace=wrap;overflow=hidden;rounded=0;align=left;movable=1;resizable=1;rotatable=1;deletable=1;editable=1;locked=0;connectable=1;" vertex="1" parent="1">
          <mxGeometry x="-260" y="-45" width="130" height="60" as="geometry" />
        </mxCell>
        <mxCell id="krIxkYJXfylPc0ciONJd-49" value="Tips" style="text;html=1;strokeColor=none;fillColor=none;align=center;verticalAlign=middle;whiteSpace=wrap;rounded=0;fontStyle=1" vertex="1" parent="1">
          <mxGeometry x="-455" y="80" width="60" height="30" as="geometry" />
        </mxCell>
        <mxCell id="krIxkYJXfylPc0ciONJd-59" value="" style="rounded=1;whiteSpace=wrap;html=1;" vertex="1" parent="1">
          <mxGeometry x="-700" y="140" width="275" height="180" as="geometry" />
        </mxCell>
        <mxCell id="krIxkYJXfylPc0ciONJd-61" value="" style="rounded=1;whiteSpace=wrap;html=1;" vertex="1" parent="1">
          <mxGeometry x="-395" y="140" width="275" height="180" as="geometry" />
        </mxCell>
        <mxCell id="krIxkYJXfylPc0ciONJd-67" value="&lt;h1&gt;HFT-Fitness&lt;/h1&gt;&lt;p&gt;Lorem ipsum dolor sit amet, consectetur adipisicing elit, sed do eiusmod tempor incididunt ut labore et dolore magna aliqua.&lt;/p&gt;" style="text;html=1;strokeColor=none;fillColor=none;spacing=5;spacingTop=-20;whiteSpace=wrap;overflow=hidden;rounded=0;align=left;" vertex="1" parent="1">
          <mxGeometry x="-682.5" y="170" width="240" height="120" as="geometry" />
        </mxCell>
        <mxCell id="krIxkYJXfylPc0ciONJd-68" value="&lt;h1&gt;HFT-Fitness&lt;/h1&gt;&lt;p&gt;Lorem ipsum dolor sit amet, consectetur adipisicing elit, sed do eiusmod tempor incididunt ut labore et dolore magna aliqua.&lt;/p&gt;" style="text;html=1;strokeColor=none;fillColor=none;spacing=5;spacingTop=-20;whiteSpace=wrap;overflow=hidden;rounded=0;align=left;" vertex="1" parent="1">
          <mxGeometry x="-375" y="170" width="240" height="120" as="geometry" />
        </mxCell>
        <mxCell id="krIxkYJXfylPc0ciONJd-70" value="" style="rounded=1;whiteSpace=wrap;html=1;" vertex="1" parent="1">
          <mxGeometry x="-665" y="370" width="520" height="180" as="geometry" />
        </mxCell>
        <mxCell id="krIxkYJXfylPc0ciONJd-71" value="&lt;h1&gt;CTA HFT-Fitness&lt;/h1&gt;&lt;p&gt;Lorem ipsum dolor sit amet, consectetur adipisicing elit, sed do eiusmod tempor incididunt ut labore et dolore magna aliqua.&lt;/p&gt;" style="text;html=1;strokeColor=none;fillColor=none;spacing=5;spacingTop=-20;whiteSpace=wrap;overflow=hidden;rounded=0;align=center;" vertex="1" parent="1">
          <mxGeometry x="-625" y="400" width="430" height="120" as="geometry" />
        </mxCell>
        <mxCell id="krIxkYJXfylPc0ciONJd-72" value="&lt;b&gt;&lt;font style=&quot;font-size: 21px;&quot;&gt;Button&lt;/font&gt;&lt;/b&gt;" style="rounded=1;whiteSpace=wrap;html=1;" vertex="1" parent="1">
          <mxGeometry x="-470" y="490" width="120" height="40" as="geometry" />
        </mxCell>
        <mxCell id="krIxkYJXfylPc0ciONJd-73" value="Footer Logo" style="text;html=1;strokeColor=none;fillColor=none;align=center;verticalAlign=middle;whiteSpace=wrap;rounded=0;fontStyle=1" vertex="1" parent="1">
          <mxGeometry x="-730" y="630" width="110" height="30" as="geometry" />
        </mxCell>
        <mxCell id="krIxkYJXfylPc0ciONJd-74" value="Copy right" style="text;html=1;strokeColor=none;fillColor=none;align=center;verticalAlign=middle;whiteSpace=wrap;rounded=0;fontStyle=1" vertex="1" parent="1">
          <mxGeometry x="-230" y="630" width="105" height="30" as="geometry" />
        </mxCell>
        <mxCell id="krIxkYJXfylPc0ciONJd-77" value="" style="rounded=0;whiteSpace=wrap;html=1;" vertex="1" parent="1">
          <mxGeometry y="-1040" width="650" height="490" as="geometry" />
        </mxCell>
        <mxCell id="krIxkYJXfylPc0ciONJd-78" value="Login" style="text;html=1;strokeColor=none;fillColor=none;align=center;verticalAlign=middle;whiteSpace=wrap;rounded=0;fontStyle=1" vertex="1" parent="1">
          <mxGeometry x="295" y="-990" width="60" height="30" as="geometry" />
        </mxCell>
        <mxCell id="krIxkYJXfylPc0ciONJd-79" value="" style="rounded=1;whiteSpace=wrap;html=1;" vertex="1" parent="1">
          <mxGeometry x="70" y="-940" width="520" height="350" as="geometry" />
        </mxCell>
        <mxCell id="krIxkYJXfylPc0ciONJd-80" value="" style="rounded=0;whiteSpace=wrap;html=1;" vertex="1" parent="1">
          <mxGeometry x="200" y="-880" width="250" height="60" as="geometry" />
        </mxCell>
        <mxCell id="krIxkYJXfylPc0ciONJd-81" value="" style="rounded=0;whiteSpace=wrap;html=1;" vertex="1" parent="1">
          <mxGeometry x="200" y="-790" width="250" height="60" as="geometry" />
        </mxCell>
        <mxCell id="krIxkYJXfylPc0ciONJd-82" value="" style="rounded=1;whiteSpace=wrap;html=1;" vertex="1" parent="1">
          <mxGeometry x="235" y="-700" width="180" height="60" as="geometry" />
        </mxCell>
        <mxCell id="krIxkYJXfylPc0ciONJd-83" value="Signup route" style="text;html=1;strokeColor=none;fillColor=none;align=center;verticalAlign=middle;whiteSpace=wrap;rounded=0;fontStyle=1" vertex="1" parent="1">
          <mxGeometry x="257.5" y="-630" width="135" height="30" as="geometry" />
        </mxCell>
        <mxCell id="krIxkYJXfylPc0ciONJd-84" value="Login" style="text;html=1;strokeColor=none;fillColor=none;align=center;verticalAlign=middle;whiteSpace=wrap;rounded=0;fontStyle=1" vertex="1" parent="1">
          <mxGeometry x="257.5" y="-685" width="135" height="30" as="geometry" />
        </mxCell>
        <mxCell id="krIxkYJXfylPc0ciONJd-85" value="Password" style="text;html=1;strokeColor=none;fillColor=none;align=center;verticalAlign=middle;whiteSpace=wrap;rounded=0;fontStyle=1" vertex="1" parent="1">
          <mxGeometry x="257.5" y="-775" width="135" height="30" as="geometry" />
        </mxCell>
        <mxCell id="krIxkYJXfylPc0ciONJd-86" value="Username" style="text;html=1;strokeColor=none;fillColor=none;align=center;verticalAlign=middle;whiteSpace=wrap;rounded=0;fontStyle=1" vertex="1" parent="1">
          <mxGeometry x="257.5" y="-865" width="135" height="30" as="geometry" />
        </mxCell>
        <mxCell id="krIxkYJXfylPc0ciONJd-88" value="" style="rounded=0;whiteSpace=wrap;html=1;" vertex="1" parent="1">
          <mxGeometry y="-1610" width="650" height="490" as="geometry" />
        </mxCell>
        <mxCell id="krIxkYJXfylPc0ciONJd-89" value="Signup" style="text;html=1;strokeColor=none;fillColor=none;align=center;verticalAlign=middle;whiteSpace=wrap;rounded=0;fontStyle=1" vertex="1" parent="1">
          <mxGeometry x="295" y="-1560" width="60" height="30" as="geometry" />
        </mxCell>
        <mxCell id="krIxkYJXfylPc0ciONJd-90" value="" style="rounded=1;whiteSpace=wrap;html=1;" vertex="1" parent="1">
          <mxGeometry x="70" y="-1510" width="520" height="350" as="geometry" />
        </mxCell>
        <mxCell id="krIxkYJXfylPc0ciONJd-91" value="" style="rounded=0;whiteSpace=wrap;html=1;" vertex="1" parent="1">
          <mxGeometry x="200" y="-1477" width="250" height="60" as="geometry" />
        </mxCell>
        <mxCell id="krIxkYJXfylPc0ciONJd-92" value="" style="rounded=0;whiteSpace=wrap;html=1;" vertex="1" parent="1">
          <mxGeometry x="200" y="-1397" width="250" height="60" as="geometry" />
        </mxCell>
        <mxCell id="krIxkYJXfylPc0ciONJd-93" value="" style="rounded=1;whiteSpace=wrap;html=1;" vertex="1" parent="1">
          <mxGeometry x="235" y="-1250" width="180" height="50" as="geometry" />
        </mxCell>
        <mxCell id="krIxkYJXfylPc0ciONJd-101" style="edgeStyle=orthogonalEdgeStyle;rounded=0;orthogonalLoop=1;jettySize=auto;html=1;exitX=1;exitY=0.75;exitDx=0;exitDy=0;entryX=0.75;entryY=0;entryDx=0;entryDy=0;" edge="1" parent="1" source="krIxkYJXfylPc0ciONJd-94" target="krIxkYJXfylPc0ciONJd-77">
          <mxGeometry relative="1" as="geometry">
            <mxPoint x="450" y="-1060" as="targetPoint" />
          </mxGeometry>
        </mxCell>
        <mxCell id="krIxkYJXfylPc0ciONJd-94" value="Login route" style="text;html=1;strokeColor=none;fillColor=none;align=center;verticalAlign=middle;whiteSpace=wrap;rounded=0;fontStyle=1" vertex="1" parent="1">
          <mxGeometry x="257.5" y="-1200" width="135" height="30" as="geometry" />
        </mxCell>
        <mxCell id="krIxkYJXfylPc0ciONJd-95" value="Signup" style="text;html=1;strokeColor=none;fillColor=none;align=center;verticalAlign=middle;whiteSpace=wrap;rounded=0;fontStyle=1" vertex="1" parent="1">
          <mxGeometry x="257.5" y="-1240" width="135" height="30" as="geometry" />
        </mxCell>
        <mxCell id="krIxkYJXfylPc0ciONJd-96" value="Password" style="text;html=1;strokeColor=none;fillColor=none;align=center;verticalAlign=middle;whiteSpace=wrap;rounded=0;fontStyle=1" vertex="1" parent="1">
          <mxGeometry x="257.5" y="-1382" width="135" height="30" as="geometry" />
        </mxCell>
        <mxCell id="krIxkYJXfylPc0ciONJd-97" value="Username" style="text;html=1;strokeColor=none;fillColor=none;align=center;verticalAlign=middle;whiteSpace=wrap;rounded=0;fontStyle=1" vertex="1" parent="1">
          <mxGeometry x="257.5" y="-1462" width="135" height="30" as="geometry" />
        </mxCell>
        <mxCell id="krIxkYJXfylPc0ciONJd-99" value="" style="rounded=0;whiteSpace=wrap;html=1;" vertex="1" parent="1">
          <mxGeometry x="200" y="-1320" width="250" height="60" as="geometry" />
        </mxCell>
        <mxCell id="krIxkYJXfylPc0ciONJd-98" value="Confirm Password" style="text;html=1;strokeColor=none;fillColor=none;align=center;verticalAlign=middle;whiteSpace=wrap;rounded=0;fontStyle=1" vertex="1" parent="1">
          <mxGeometry x="257.5" y="-1305" width="135" height="30" as="geometry" />
        </mxCell>
        <mxCell id="krIxkYJXfylPc0ciONJd-102" style="edgeStyle=orthogonalEdgeStyle;rounded=0;orthogonalLoop=1;jettySize=auto;html=1;entryX=0.686;entryY=0.998;entryDx=0;entryDy=0;entryPerimeter=0;exitX=1;exitY=0.75;exitDx=0;exitDy=0;" edge="1" parent="1" source="krIxkYJXfylPc0ciONJd-83" target="krIxkYJXfylPc0ciONJd-88">
          <mxGeometry relative="1" as="geometry">
            <Array as="points">
              <mxPoint x="520" y="-608" />
              <mxPoint x="520" y="-680" />
              <mxPoint x="470" y="-680" />
              <mxPoint x="470" y="-1121" />
            </Array>
          </mxGeometry>
        </mxCell>
      </root>
    </mxGraphModel>
  </diagram>
</mxfile>
